<svg xmlns="http://www.w3.org/2000/svg" xmlns:xlink="http://www.w3.org/1999/xlink" width="681" height="671" viewBox="0 0 681 671">
  <defs>
    <clipPath id="clip-path">
      <rect width="681" height="671" fill="none"/>
    </clipPath>
  </defs>
  <g id="Repeat_Grid_1" data-name="Repeat Grid 1" opacity="0.11" clip-path="url(#clip-path)">
    <g transform="translate(-1291 -141)">
      <circle id="Ellipse_22" data-name="Ellipse 22" cx="3" cy="3" r="3" transform="translate(1291 141)" fill="#00e0ff"/>
    </g>
    <g transform="translate(-1249 -141)">
      <circle id="Ellipse_22-2" data-name="Ellipse 22" cx="3" cy="3" r="3" transform="translate(1291 141)" fill="#00e0ff"/>
    </g>
    <g transform="translate(-1207 -141)">
      <circle id="Ellipse_22-3" data-name="Ellipse 22" cx="3" cy="3" r="3" transform="translate(1291 141)" fill="#00e0ff"/>
    </g>
    <g transform="translate(-1165 -141)">
      <circle id="Ellipse_22-4" data-name="Ellipse 22" cx="3" cy="3" r="3" transform="translate(1291 141)" fill="#00e0ff"/>
    </g>
    <g transform="translate(-1123 -141)">
      <circle id="Ellipse_22-5" data-name="Ellipse 22" cx="3" cy="3" r="3" transform="translate(1291 141)" fill="#00e0ff"/>
    </g>
    <g transform="translate(-1081 -141)">
      <circle id="Ellipse_22-6" data-name="Ellipse 22" cx="3" cy="3" r="3" transform="translate(1291 141)" fill="#00e0ff"/>
    </g>
    <g transform="translate(-1039 -141)">
      <circle id="Ellipse_22-7" data-name="Ellipse 22" cx="3" cy="3" r="3" transform="translate(1291 141)" fill="#00e0ff"/>
    </g>
    <g transform="translate(-997 -141)">
      <circle id="Ellipse_22-8" data-name="Ellipse 22" cx="3" cy="3" r="3" transform="translate(1291 141)" fill="#00e0ff"/>
    </g>
    <g transform="translate(-955 -141)">
      <circle id="Ellipse_22-9" data-name="Ellipse 22" cx="3" cy="3" r="3" transform="translate(1291 141)" fill="#00e0ff"/>
    </g>
    <g transform="translate(-913 -141)">
      <circle id="Ellipse_22-10" data-name="Ellipse 22" cx="3" cy="3" r="3" transform="translate(1291 141)" fill="#00e0ff"/>
    </g>
    <g transform="translate(-871 -141)">
      <circle id="Ellipse_22-11" data-name="Ellipse 22" cx="3" cy="3" r="3" transform="translate(1291 141)" fill="#00e0ff"/>
    </g>
    <g transform="translate(-829 -141)">
      <circle id="Ellipse_22-12" data-name="Ellipse 22" cx="3" cy="3" r="3" transform="translate(1291 141)" fill="#00e0ff"/>
    </g>
    <g transform="translate(-787 -141)">
      <circle id="Ellipse_22-13" data-name="Ellipse 22" cx="3" cy="3" r="3" transform="translate(1291 141)" fill="#00e0ff"/>
    </g>
    <g transform="translate(-745 -141)">
      <circle id="Ellipse_22-14" data-name="Ellipse 22" cx="3" cy="3" r="3" transform="translate(1291 141)" fill="#00e0ff"/>
    </g>
    <g transform="translate(-703 -141)">
      <circle id="Ellipse_22-15" data-name="Ellipse 22" cx="3" cy="3" r="3" transform="translate(1291 141)" fill="#00e0ff"/>
    </g>
    <g transform="translate(-661 -141)">
      <circle id="Ellipse_22-16" data-name="Ellipse 22" cx="3" cy="3" r="3" transform="translate(1291 141)" fill="#00e0ff"/>
    </g>
    <g transform="translate(-619 -141)">
      <circle id="Ellipse_22-17" data-name="Ellipse 22" cx="3" cy="3" r="3" transform="translate(1291 141)" fill="#00e0ff"/>
    </g>
    <g transform="translate(-1291 -92)">
      <circle id="Ellipse_22-18" data-name="Ellipse 22" cx="3" cy="3" r="3" transform="translate(1291 141)" fill="#00e0ff"/>
    </g>
    <g transform="translate(-1249 -92)">
      <circle id="Ellipse_22-19" data-name="Ellipse 22" cx="3" cy="3" r="3" transform="translate(1291 141)" fill="#00e0ff"/>
    </g>
    <g transform="translate(-1207 -92)">
      <circle id="Ellipse_22-20" data-name="Ellipse 22" cx="3" cy="3" r="3" transform="translate(1291 141)" fill="#00e0ff"/>
    </g>
    <g transform="translate(-1165 -92)">
      <circle id="Ellipse_22-21" data-name="Ellipse 22" cx="3" cy="3" r="3" transform="translate(1291 141)" fill="#00e0ff"/>
    </g>
    <g transform="translate(-1123 -92)">
      <circle id="Ellipse_22-22" data-name="Ellipse 22" cx="3" cy="3" r="3" transform="translate(1291 141)" fill="#00e0ff"/>
    </g>
    <g transform="translate(-1081 -92)">
      <circle id="Ellipse_22-23" data-name="Ellipse 22" cx="3" cy="3" r="3" transform="translate(1291 141)" fill="#00e0ff"/>
    </g>
    <g transform="translate(-1039 -92)">
      <circle id="Ellipse_22-24" data-name="Ellipse 22" cx="3" cy="3" r="3" transform="translate(1291 141)" fill="#00e0ff"/>
    </g>
    <g transform="translate(-997 -92)">
      <circle id="Ellipse_22-25" data-name="Ellipse 22" cx="3" cy="3" r="3" transform="translate(1291 141)" fill="#00e0ff"/>
    </g>
    <g transform="translate(-955 -92)">
      <circle id="Ellipse_22-26" data-name="Ellipse 22" cx="3" cy="3" r="3" transform="translate(1291 141)" fill="#00e0ff"/>
    </g>
    <g transform="translate(-913 -92)">
      <circle id="Ellipse_22-27" data-name="Ellipse 22" cx="3" cy="3" r="3" transform="translate(1291 141)" fill="#00e0ff"/>
    </g>
    <g transform="translate(-871 -92)">
      <circle id="Ellipse_22-28" data-name="Ellipse 22" cx="3" cy="3" r="3" transform="translate(1291 141)" fill="#00e0ff"/>
    </g>
    <g transform="translate(-829 -92)">
      <circle id="Ellipse_22-29" data-name="Ellipse 22" cx="3" cy="3" r="3" transform="translate(1291 141)" fill="#00e0ff"/>
    </g>
    <g transform="translate(-787 -92)">
      <circle id="Ellipse_22-30" data-name="Ellipse 22" cx="3" cy="3" r="3" transform="translate(1291 141)" fill="#00e0ff"/>
    </g>
    <g transform="translate(-745 -92)">
      <circle id="Ellipse_22-31" data-name="Ellipse 22" cx="3" cy="3" r="3" transform="translate(1291 141)" fill="#00e0ff"/>
    </g>
    <g transform="translate(-703 -92)">
      <circle id="Ellipse_22-32" data-name="Ellipse 22" cx="3" cy="3" r="3" transform="translate(1291 141)" fill="#00e0ff"/>
    </g>
    <g transform="translate(-661 -92)">
      <circle id="Ellipse_22-33" data-name="Ellipse 22" cx="3" cy="3" r="3" transform="translate(1291 141)" fill="#00e0ff"/>
    </g>
    <g transform="translate(-619 -92)">
      <circle id="Ellipse_22-34" data-name="Ellipse 22" cx="3" cy="3" r="3" transform="translate(1291 141)" fill="#00e0ff"/>
    </g>
    <g transform="translate(-1291 -43)">
      <circle id="Ellipse_22-35" data-name="Ellipse 22" cx="3" cy="3" r="3" transform="translate(1291 141)" fill="#00e0ff"/>
    </g>
    <g transform="translate(-1249 -43)">
      <circle id="Ellipse_22-36" data-name="Ellipse 22" cx="3" cy="3" r="3" transform="translate(1291 141)" fill="#00e0ff"/>
    </g>
    <g transform="translate(-1207 -43)">
      <circle id="Ellipse_22-37" data-name="Ellipse 22" cx="3" cy="3" r="3" transform="translate(1291 141)" fill="#00e0ff"/>
    </g>
    <g transform="translate(-1165 -43)">
      <circle id="Ellipse_22-38" data-name="Ellipse 22" cx="3" cy="3" r="3" transform="translate(1291 141)" fill="#00e0ff"/>
    </g>
    <g transform="translate(-1123 -43)">
      <circle id="Ellipse_22-39" data-name="Ellipse 22" cx="3" cy="3" r="3" transform="translate(1291 141)" fill="#00e0ff"/>
    </g>
    <g transform="translate(-1081 -43)">
      <circle id="Ellipse_22-40" data-name="Ellipse 22" cx="3" cy="3" r="3" transform="translate(1291 141)" fill="#00e0ff"/>
    </g>
    <g transform="translate(-1039 -43)">
      <circle id="Ellipse_22-41" data-name="Ellipse 22" cx="3" cy="3" r="3" transform="translate(1291 141)" fill="#00e0ff"/>
    </g>
    <g transform="translate(-997 -43)">
      <circle id="Ellipse_22-42" data-name="Ellipse 22" cx="3" cy="3" r="3" transform="translate(1291 141)" fill="#00e0ff"/>
    </g>
    <g transform="translate(-955 -43)">
      <circle id="Ellipse_22-43" data-name="Ellipse 22" cx="3" cy="3" r="3" transform="translate(1291 141)" fill="#00e0ff"/>
    </g>
    <g transform="translate(-913 -43)">
      <circle id="Ellipse_22-44" data-name="Ellipse 22" cx="3" cy="3" r="3" transform="translate(1291 141)" fill="#00e0ff"/>
    </g>
    <g transform="translate(-871 -43)">
      <circle id="Ellipse_22-45" data-name="Ellipse 22" cx="3" cy="3" r="3" transform="translate(1291 141)" fill="#00e0ff"/>
    </g>
    <g transform="translate(-829 -43)">
      <circle id="Ellipse_22-46" data-name="Ellipse 22" cx="3" cy="3" r="3" transform="translate(1291 141)" fill="#00e0ff"/>
    </g>
    <g transform="translate(-787 -43)">
      <circle id="Ellipse_22-47" data-name="Ellipse 22" cx="3" cy="3" r="3" transform="translate(1291 141)" fill="#00e0ff"/>
    </g>
    <g transform="translate(-745 -43)">
      <circle id="Ellipse_22-48" data-name="Ellipse 22" cx="3" cy="3" r="3" transform="translate(1291 141)" fill="#00e0ff"/>
    </g>
    <g transform="translate(-703 -43)">
      <circle id="Ellipse_22-49" data-name="Ellipse 22" cx="3" cy="3" r="3" transform="translate(1291 141)" fill="#00e0ff"/>
    </g>
    <g transform="translate(-661 -43)">
      <circle id="Ellipse_22-50" data-name="Ellipse 22" cx="3" cy="3" r="3" transform="translate(1291 141)" fill="#00e0ff"/>
    </g>
    <g transform="translate(-619 -43)">
      <circle id="Ellipse_22-51" data-name="Ellipse 22" cx="3" cy="3" r="3" transform="translate(1291 141)" fill="#00e0ff"/>
    </g>
    <g transform="translate(-1291 6)">
      <circle id="Ellipse_22-52" data-name="Ellipse 22" cx="3" cy="3" r="3" transform="translate(1291 141)" fill="#00e0ff"/>
    </g>
    <g transform="translate(-1249 6)">
      <circle id="Ellipse_22-53" data-name="Ellipse 22" cx="3" cy="3" r="3" transform="translate(1291 141)" fill="#00e0ff"/>
    </g>
    <g transform="translate(-1207 6)">
      <circle id="Ellipse_22-54" data-name="Ellipse 22" cx="3" cy="3" r="3" transform="translate(1291 141)" fill="#00e0ff"/>
    </g>
    <g transform="translate(-1165 6)">
      <circle id="Ellipse_22-55" data-name="Ellipse 22" cx="3" cy="3" r="3" transform="translate(1291 141)" fill="#00e0ff"/>
    </g>
    <g transform="translate(-1123 6)">
      <circle id="Ellipse_22-56" data-name="Ellipse 22" cx="3" cy="3" r="3" transform="translate(1291 141)" fill="#00e0ff"/>
    </g>
    <g transform="translate(-1081 6)">
      <circle id="Ellipse_22-57" data-name="Ellipse 22" cx="3" cy="3" r="3" transform="translate(1291 141)" fill="#00e0ff"/>
    </g>
    <g transform="translate(-1039 6)">
      <circle id="Ellipse_22-58" data-name="Ellipse 22" cx="3" cy="3" r="3" transform="translate(1291 141)" fill="#00e0ff"/>
    </g>
    <g transform="translate(-997 6)">
      <circle id="Ellipse_22-59" data-name="Ellipse 22" cx="3" cy="3" r="3" transform="translate(1291 141)" fill="#00e0ff"/>
    </g>
    <g transform="translate(-955 6)">
      <circle id="Ellipse_22-60" data-name="Ellipse 22" cx="3" cy="3" r="3" transform="translate(1291 141)" fill="#00e0ff"/>
    </g>
    <g transform="translate(-913 6)">
      <circle id="Ellipse_22-61" data-name="Ellipse 22" cx="3" cy="3" r="3" transform="translate(1291 141)" fill="#00e0ff"/>
    </g>
    <g transform="translate(-871 6)">
      <circle id="Ellipse_22-62" data-name="Ellipse 22" cx="3" cy="3" r="3" transform="translate(1291 141)" fill="#00e0ff"/>
    </g>
    <g transform="translate(-829 6)">
      <circle id="Ellipse_22-63" data-name="Ellipse 22" cx="3" cy="3" r="3" transform="translate(1291 141)" fill="#00e0ff"/>
    </g>
    <g transform="translate(-787 6)">
      <circle id="Ellipse_22-64" data-name="Ellipse 22" cx="3" cy="3" r="3" transform="translate(1291 141)" fill="#00e0ff"/>
    </g>
    <g transform="translate(-745 6)">
      <circle id="Ellipse_22-65" data-name="Ellipse 22" cx="3" cy="3" r="3" transform="translate(1291 141)" fill="#00e0ff"/>
    </g>
    <g transform="translate(-703 6)">
      <circle id="Ellipse_22-66" data-name="Ellipse 22" cx="3" cy="3" r="3" transform="translate(1291 141)" fill="#00e0ff"/>
    </g>
    <g transform="translate(-661 6)">
      <circle id="Ellipse_22-67" data-name="Ellipse 22" cx="3" cy="3" r="3" transform="translate(1291 141)" fill="#00e0ff"/>
    </g>
    <g transform="translate(-619 6)">
      <circle id="Ellipse_22-68" data-name="Ellipse 22" cx="3" cy="3" r="3" transform="translate(1291 141)" fill="#00e0ff"/>
    </g>
    <g transform="translate(-1291 55)">
      <circle id="Ellipse_22-69" data-name="Ellipse 22" cx="3" cy="3" r="3" transform="translate(1291 141)" fill="#00e0ff"/>
    </g>
    <g transform="translate(-1249 55)">
      <circle id="Ellipse_22-70" data-name="Ellipse 22" cx="3" cy="3" r="3" transform="translate(1291 141)" fill="#00e0ff"/>
    </g>
    <g transform="translate(-1207 55)">
      <circle id="Ellipse_22-71" data-name="Ellipse 22" cx="3" cy="3" r="3" transform="translate(1291 141)" fill="#00e0ff"/>
    </g>
    <g transform="translate(-1165 55)">
      <circle id="Ellipse_22-72" data-name="Ellipse 22" cx="3" cy="3" r="3" transform="translate(1291 141)" fill="#00e0ff"/>
    </g>
    <g transform="translate(-1123 55)">
      <circle id="Ellipse_22-73" data-name="Ellipse 22" cx="3" cy="3" r="3" transform="translate(1291 141)" fill="#00e0ff"/>
    </g>
    <g transform="translate(-1081 55)">
      <circle id="Ellipse_22-74" data-name="Ellipse 22" cx="3" cy="3" r="3" transform="translate(1291 141)" fill="#00e0ff"/>
    </g>
    <g transform="translate(-1039 55)">
      <circle id="Ellipse_22-75" data-name="Ellipse 22" cx="3" cy="3" r="3" transform="translate(1291 141)" fill="#00e0ff"/>
    </g>
    <g transform="translate(-997 55)">
      <circle id="Ellipse_22-76" data-name="Ellipse 22" cx="3" cy="3" r="3" transform="translate(1291 141)" fill="#00e0ff"/>
    </g>
    <g transform="translate(-955 55)">
      <circle id="Ellipse_22-77" data-name="Ellipse 22" cx="3" cy="3" r="3" transform="translate(1291 141)" fill="#00e0ff"/>
    </g>
    <g transform="translate(-913 55)">
      <circle id="Ellipse_22-78" data-name="Ellipse 22" cx="3" cy="3" r="3" transform="translate(1291 141)" fill="#00e0ff"/>
    </g>
    <g transform="translate(-871 55)">
      <circle id="Ellipse_22-79" data-name="Ellipse 22" cx="3" cy="3" r="3" transform="translate(1291 141)" fill="#00e0ff"/>
    </g>
    <g transform="translate(-829 55)">
      <circle id="Ellipse_22-80" data-name="Ellipse 22" cx="3" cy="3" r="3" transform="translate(1291 141)" fill="#00e0ff"/>
    </g>
    <g transform="translate(-787 55)">
      <circle id="Ellipse_22-81" data-name="Ellipse 22" cx="3" cy="3" r="3" transform="translate(1291 141)" fill="#00e0ff"/>
    </g>
    <g transform="translate(-745 55)">
      <circle id="Ellipse_22-82" data-name="Ellipse 22" cx="3" cy="3" r="3" transform="translate(1291 141)" fill="#00e0ff"/>
    </g>
    <g transform="translate(-703 55)">
      <circle id="Ellipse_22-83" data-name="Ellipse 22" cx="3" cy="3" r="3" transform="translate(1291 141)" fill="#00e0ff"/>
    </g>
    <g transform="translate(-661 55)">
      <circle id="Ellipse_22-84" data-name="Ellipse 22" cx="3" cy="3" r="3" transform="translate(1291 141)" fill="#00e0ff"/>
    </g>
    <g transform="translate(-619 55)">
      <circle id="Ellipse_22-85" data-name="Ellipse 22" cx="3" cy="3" r="3" transform="translate(1291 141)" fill="#00e0ff"/>
    </g>
    <g transform="translate(-1291 104)">
      <circle id="Ellipse_22-86" data-name="Ellipse 22" cx="3" cy="3" r="3" transform="translate(1291 141)" fill="#00e0ff"/>
    </g>
    <g transform="translate(-1249 104)">
      <circle id="Ellipse_22-87" data-name="Ellipse 22" cx="3" cy="3" r="3" transform="translate(1291 141)" fill="#00e0ff"/>
    </g>
    <g transform="translate(-1207 104)">
      <circle id="Ellipse_22-88" data-name="Ellipse 22" cx="3" cy="3" r="3" transform="translate(1291 141)" fill="#00e0ff"/>
    </g>
    <g transform="translate(-1165 104)">
      <circle id="Ellipse_22-89" data-name="Ellipse 22" cx="3" cy="3" r="3" transform="translate(1291 141)" fill="#00e0ff"/>
    </g>
    <g transform="translate(-1123 104)">
      <circle id="Ellipse_22-90" data-name="Ellipse 22" cx="3" cy="3" r="3" transform="translate(1291 141)" fill="#00e0ff"/>
    </g>
    <g transform="translate(-1081 104)">
      <circle id="Ellipse_22-91" data-name="Ellipse 22" cx="3" cy="3" r="3" transform="translate(1291 141)" fill="#00e0ff"/>
    </g>
    <g transform="translate(-1039 104)">
      <circle id="Ellipse_22-92" data-name="Ellipse 22" cx="3" cy="3" r="3" transform="translate(1291 141)" fill="#00e0ff"/>
    </g>
    <g transform="translate(-997 104)">
      <circle id="Ellipse_22-93" data-name="Ellipse 22" cx="3" cy="3" r="3" transform="translate(1291 141)" fill="#00e0ff"/>
    </g>
    <g transform="translate(-955 104)">
      <circle id="Ellipse_22-94" data-name="Ellipse 22" cx="3" cy="3" r="3" transform="translate(1291 141)" fill="#00e0ff"/>
    </g>
    <g transform="translate(-913 104)">
      <circle id="Ellipse_22-95" data-name="Ellipse 22" cx="3" cy="3" r="3" transform="translate(1291 141)" fill="#00e0ff"/>
    </g>
    <g transform="translate(-871 104)">
      <circle id="Ellipse_22-96" data-name="Ellipse 22" cx="3" cy="3" r="3" transform="translate(1291 141)" fill="#00e0ff"/>
    </g>
    <g transform="translate(-829 104)">
      <circle id="Ellipse_22-97" data-name="Ellipse 22" cx="3" cy="3" r="3" transform="translate(1291 141)" fill="#00e0ff"/>
    </g>
    <g transform="translate(-787 104)">
      <circle id="Ellipse_22-98" data-name="Ellipse 22" cx="3" cy="3" r="3" transform="translate(1291 141)" fill="#00e0ff"/>
    </g>
    <g transform="translate(-745 104)">
      <circle id="Ellipse_22-99" data-name="Ellipse 22" cx="3" cy="3" r="3" transform="translate(1291 141)" fill="#00e0ff"/>
    </g>
    <g transform="translate(-703 104)">
      <circle id="Ellipse_22-100" data-name="Ellipse 22" cx="3" cy="3" r="3" transform="translate(1291 141)" fill="#00e0ff"/>
    </g>
    <g transform="translate(-661 104)">
      <circle id="Ellipse_22-101" data-name="Ellipse 22" cx="3" cy="3" r="3" transform="translate(1291 141)" fill="#00e0ff"/>
    </g>
    <g transform="translate(-619 104)">
      <circle id="Ellipse_22-102" data-name="Ellipse 22" cx="3" cy="3" r="3" transform="translate(1291 141)" fill="#00e0ff"/>
    </g>
    <g transform="translate(-1291 153)">
      <circle id="Ellipse_22-103" data-name="Ellipse 22" cx="3" cy="3" r="3" transform="translate(1291 141)" fill="#00e0ff"/>
    </g>
    <g transform="translate(-1249 153)">
      <circle id="Ellipse_22-104" data-name="Ellipse 22" cx="3" cy="3" r="3" transform="translate(1291 141)" fill="#00e0ff"/>
    </g>
    <g transform="translate(-1207 153)">
      <circle id="Ellipse_22-105" data-name="Ellipse 22" cx="3" cy="3" r="3" transform="translate(1291 141)" fill="#00e0ff"/>
    </g>
    <g transform="translate(-1165 153)">
      <circle id="Ellipse_22-106" data-name="Ellipse 22" cx="3" cy="3" r="3" transform="translate(1291 141)" fill="#00e0ff"/>
    </g>
    <g transform="translate(-1123 153)">
      <circle id="Ellipse_22-107" data-name="Ellipse 22" cx="3" cy="3" r="3" transform="translate(1291 141)" fill="#00e0ff"/>
    </g>
    <g transform="translate(-1081 153)">
      <circle id="Ellipse_22-108" data-name="Ellipse 22" cx="3" cy="3" r="3" transform="translate(1291 141)" fill="#00e0ff"/>
    </g>
    <g transform="translate(-1039 153)">
      <circle id="Ellipse_22-109" data-name="Ellipse 22" cx="3" cy="3" r="3" transform="translate(1291 141)" fill="#00e0ff"/>
    </g>
    <g transform="translate(-997 153)">
      <circle id="Ellipse_22-110" data-name="Ellipse 22" cx="3" cy="3" r="3" transform="translate(1291 141)" fill="#00e0ff"/>
    </g>
    <g transform="translate(-955 153)">
      <circle id="Ellipse_22-111" data-name="Ellipse 22" cx="3" cy="3" r="3" transform="translate(1291 141)" fill="#00e0ff"/>
    </g>
    <g transform="translate(-913 153)">
      <circle id="Ellipse_22-112" data-name="Ellipse 22" cx="3" cy="3" r="3" transform="translate(1291 141)" fill="#00e0ff"/>
    </g>
    <g transform="translate(-871 153)">
      <circle id="Ellipse_22-113" data-name="Ellipse 22" cx="3" cy="3" r="3" transform="translate(1291 141)" fill="#00e0ff"/>
    </g>
    <g transform="translate(-829 153)">
      <circle id="Ellipse_22-114" data-name="Ellipse 22" cx="3" cy="3" r="3" transform="translate(1291 141)" fill="#00e0ff"/>
    </g>
    <g transform="translate(-787 153)">
      <circle id="Ellipse_22-115" data-name="Ellipse 22" cx="3" cy="3" r="3" transform="translate(1291 141)" fill="#00e0ff"/>
    </g>
    <g transform="translate(-745 153)">
      <circle id="Ellipse_22-116" data-name="Ellipse 22" cx="3" cy="3" r="3" transform="translate(1291 141)" fill="#00e0ff"/>
    </g>
    <g transform="translate(-703 153)">
      <circle id="Ellipse_22-117" data-name="Ellipse 22" cx="3" cy="3" r="3" transform="translate(1291 141)" fill="#00e0ff"/>
    </g>
    <g transform="translate(-661 153)">
      <circle id="Ellipse_22-118" data-name="Ellipse 22" cx="3" cy="3" r="3" transform="translate(1291 141)" fill="#00e0ff"/>
    </g>
    <g transform="translate(-619 153)">
      <circle id="Ellipse_22-119" data-name="Ellipse 22" cx="3" cy="3" r="3" transform="translate(1291 141)" fill="#00e0ff"/>
    </g>
    <g transform="translate(-1291 202)">
      <circle id="Ellipse_22-120" data-name="Ellipse 22" cx="3" cy="3" r="3" transform="translate(1291 141)" fill="#00e0ff"/>
    </g>
    <g transform="translate(-1249 202)">
      <circle id="Ellipse_22-121" data-name="Ellipse 22" cx="3" cy="3" r="3" transform="translate(1291 141)" fill="#00e0ff"/>
    </g>
    <g transform="translate(-1207 202)">
      <circle id="Ellipse_22-122" data-name="Ellipse 22" cx="3" cy="3" r="3" transform="translate(1291 141)" fill="#00e0ff"/>
    </g>
    <g transform="translate(-1165 202)">
      <circle id="Ellipse_22-123" data-name="Ellipse 22" cx="3" cy="3" r="3" transform="translate(1291 141)" fill="#00e0ff"/>
    </g>
    <g transform="translate(-1123 202)">
      <circle id="Ellipse_22-124" data-name="Ellipse 22" cx="3" cy="3" r="3" transform="translate(1291 141)" fill="#00e0ff"/>
    </g>
    <g transform="translate(-1081 202)">
      <circle id="Ellipse_22-125" data-name="Ellipse 22" cx="3" cy="3" r="3" transform="translate(1291 141)" fill="#00e0ff"/>
    </g>
    <g transform="translate(-1039 202)">
      <circle id="Ellipse_22-126" data-name="Ellipse 22" cx="3" cy="3" r="3" transform="translate(1291 141)" fill="#00e0ff"/>
    </g>
    <g transform="translate(-997 202)">
      <circle id="Ellipse_22-127" data-name="Ellipse 22" cx="3" cy="3" r="3" transform="translate(1291 141)" fill="#00e0ff"/>
    </g>
    <g transform="translate(-955 202)">
      <circle id="Ellipse_22-128" data-name="Ellipse 22" cx="3" cy="3" r="3" transform="translate(1291 141)" fill="#00e0ff"/>
    </g>
    <g transform="translate(-913 202)">
      <circle id="Ellipse_22-129" data-name="Ellipse 22" cx="3" cy="3" r="3" transform="translate(1291 141)" fill="#00e0ff"/>
    </g>
    <g transform="translate(-871 202)">
      <circle id="Ellipse_22-130" data-name="Ellipse 22" cx="3" cy="3" r="3" transform="translate(1291 141)" fill="#00e0ff"/>
    </g>
    <g transform="translate(-829 202)">
      <circle id="Ellipse_22-131" data-name="Ellipse 22" cx="3" cy="3" r="3" transform="translate(1291 141)" fill="#00e0ff"/>
    </g>
    <g transform="translate(-787 202)">
      <circle id="Ellipse_22-132" data-name="Ellipse 22" cx="3" cy="3" r="3" transform="translate(1291 141)" fill="#00e0ff"/>
    </g>
    <g transform="translate(-745 202)">
      <circle id="Ellipse_22-133" data-name="Ellipse 22" cx="3" cy="3" r="3" transform="translate(1291 141)" fill="#00e0ff"/>
    </g>
    <g transform="translate(-703 202)">
      <circle id="Ellipse_22-134" data-name="Ellipse 22" cx="3" cy="3" r="3" transform="translate(1291 141)" fill="#00e0ff"/>
    </g>
    <g transform="translate(-661 202)">
      <circle id="Ellipse_22-135" data-name="Ellipse 22" cx="3" cy="3" r="3" transform="translate(1291 141)" fill="#00e0ff"/>
    </g>
    <g transform="translate(-619 202)">
      <circle id="Ellipse_22-136" data-name="Ellipse 22" cx="3" cy="3" r="3" transform="translate(1291 141)" fill="#00e0ff"/>
    </g>
    <g transform="translate(-1291 251)">
      <circle id="Ellipse_22-137" data-name="Ellipse 22" cx="3" cy="3" r="3" transform="translate(1291 141)" fill="#00e0ff"/>
    </g>
    <g transform="translate(-1249 251)">
      <circle id="Ellipse_22-138" data-name="Ellipse 22" cx="3" cy="3" r="3" transform="translate(1291 141)" fill="#00e0ff"/>
    </g>
    <g transform="translate(-1207 251)">
      <circle id="Ellipse_22-139" data-name="Ellipse 22" cx="3" cy="3" r="3" transform="translate(1291 141)" fill="#00e0ff"/>
    </g>
    <g transform="translate(-1165 251)">
      <circle id="Ellipse_22-140" data-name="Ellipse 22" cx="3" cy="3" r="3" transform="translate(1291 141)" fill="#00e0ff"/>
    </g>
    <g transform="translate(-1123 251)">
      <circle id="Ellipse_22-141" data-name="Ellipse 22" cx="3" cy="3" r="3" transform="translate(1291 141)" fill="#00e0ff"/>
    </g>
    <g transform="translate(-1081 251)">
      <circle id="Ellipse_22-142" data-name="Ellipse 22" cx="3" cy="3" r="3" transform="translate(1291 141)" fill="#00e0ff"/>
    </g>
    <g transform="translate(-1039 251)">
      <circle id="Ellipse_22-143" data-name="Ellipse 22" cx="3" cy="3" r="3" transform="translate(1291 141)" fill="#00e0ff"/>
    </g>
    <g transform="translate(-997 251)">
      <circle id="Ellipse_22-144" data-name="Ellipse 22" cx="3" cy="3" r="3" transform="translate(1291 141)" fill="#00e0ff"/>
    </g>
    <g transform="translate(-955 251)">
      <circle id="Ellipse_22-145" data-name="Ellipse 22" cx="3" cy="3" r="3" transform="translate(1291 141)" fill="#00e0ff"/>
    </g>
    <g transform="translate(-913 251)">
      <circle id="Ellipse_22-146" data-name="Ellipse 22" cx="3" cy="3" r="3" transform="translate(1291 141)" fill="#00e0ff"/>
    </g>
    <g transform="translate(-871 251)">
      <circle id="Ellipse_22-147" data-name="Ellipse 22" cx="3" cy="3" r="3" transform="translate(1291 141)" fill="#00e0ff"/>
    </g>
    <g transform="translate(-829 251)">
      <circle id="Ellipse_22-148" data-name="Ellipse 22" cx="3" cy="3" r="3" transform="translate(1291 141)" fill="#00e0ff"/>
    </g>
    <g transform="translate(-787 251)">
      <circle id="Ellipse_22-149" data-name="Ellipse 22" cx="3" cy="3" r="3" transform="translate(1291 141)" fill="#00e0ff"/>
    </g>
    <g transform="translate(-745 251)">
      <circle id="Ellipse_22-150" data-name="Ellipse 22" cx="3" cy="3" r="3" transform="translate(1291 141)" fill="#00e0ff"/>
    </g>
    <g transform="translate(-703 251)">
      <circle id="Ellipse_22-151" data-name="Ellipse 22" cx="3" cy="3" r="3" transform="translate(1291 141)" fill="#00e0ff"/>
    </g>
    <g transform="translate(-661 251)">
      <circle id="Ellipse_22-152" data-name="Ellipse 22" cx="3" cy="3" r="3" transform="translate(1291 141)" fill="#00e0ff"/>
    </g>
    <g transform="translate(-619 251)">
      <circle id="Ellipse_22-153" data-name="Ellipse 22" cx="3" cy="3" r="3" transform="translate(1291 141)" fill="#00e0ff"/>
    </g>
    <g transform="translate(-1291 300)">
      <circle id="Ellipse_22-154" data-name="Ellipse 22" cx="3" cy="3" r="3" transform="translate(1291 141)" fill="#00e0ff"/>
    </g>
    <g transform="translate(-1249 300)">
      <circle id="Ellipse_22-155" data-name="Ellipse 22" cx="3" cy="3" r="3" transform="translate(1291 141)" fill="#00e0ff"/>
    </g>
    <g transform="translate(-1207 300)">
      <circle id="Ellipse_22-156" data-name="Ellipse 22" cx="3" cy="3" r="3" transform="translate(1291 141)" fill="#00e0ff"/>
    </g>
    <g transform="translate(-1165 300)">
      <circle id="Ellipse_22-157" data-name="Ellipse 22" cx="3" cy="3" r="3" transform="translate(1291 141)" fill="#00e0ff"/>
    </g>
    <g transform="translate(-1123 300)">
      <circle id="Ellipse_22-158" data-name="Ellipse 22" cx="3" cy="3" r="3" transform="translate(1291 141)" fill="#00e0ff"/>
    </g>
    <g transform="translate(-1081 300)">
      <circle id="Ellipse_22-159" data-name="Ellipse 22" cx="3" cy="3" r="3" transform="translate(1291 141)" fill="#00e0ff"/>
    </g>
    <g transform="translate(-1039 300)">
      <circle id="Ellipse_22-160" data-name="Ellipse 22" cx="3" cy="3" r="3" transform="translate(1291 141)" fill="#00e0ff"/>
    </g>
    <g transform="translate(-997 300)">
      <circle id="Ellipse_22-161" data-name="Ellipse 22" cx="3" cy="3" r="3" transform="translate(1291 141)" fill="#00e0ff"/>
    </g>
    <g transform="translate(-955 300)">
      <circle id="Ellipse_22-162" data-name="Ellipse 22" cx="3" cy="3" r="3" transform="translate(1291 141)" fill="#00e0ff"/>
    </g>
    <g transform="translate(-913 300)">
      <circle id="Ellipse_22-163" data-name="Ellipse 22" cx="3" cy="3" r="3" transform="translate(1291 141)" fill="#00e0ff"/>
    </g>
    <g transform="translate(-871 300)">
      <circle id="Ellipse_22-164" data-name="Ellipse 22" cx="3" cy="3" r="3" transform="translate(1291 141)" fill="#00e0ff"/>
    </g>
    <g transform="translate(-829 300)">
      <circle id="Ellipse_22-165" data-name="Ellipse 22" cx="3" cy="3" r="3" transform="translate(1291 141)" fill="#00e0ff"/>
    </g>
    <g transform="translate(-787 300)">
      <circle id="Ellipse_22-166" data-name="Ellipse 22" cx="3" cy="3" r="3" transform="translate(1291 141)" fill="#00e0ff"/>
    </g>
    <g transform="translate(-745 300)">
      <circle id="Ellipse_22-167" data-name="Ellipse 22" cx="3" cy="3" r="3" transform="translate(1291 141)" fill="#00e0ff"/>
    </g>
    <g transform="translate(-703 300)">
      <circle id="Ellipse_22-168" data-name="Ellipse 22" cx="3" cy="3" r="3" transform="translate(1291 141)" fill="#00e0ff"/>
    </g>
    <g transform="translate(-661 300)">
      <circle id="Ellipse_22-169" data-name="Ellipse 22" cx="3" cy="3" r="3" transform="translate(1291 141)" fill="#00e0ff"/>
    </g>
    <g transform="translate(-619 300)">
      <circle id="Ellipse_22-170" data-name="Ellipse 22" cx="3" cy="3" r="3" transform="translate(1291 141)" fill="#00e0ff"/>
    </g>
    <g transform="translate(-1291 349)">
      <circle id="Ellipse_22-171" data-name="Ellipse 22" cx="3" cy="3" r="3" transform="translate(1291 141)" fill="#00e0ff"/>
    </g>
    <g transform="translate(-1249 349)">
      <circle id="Ellipse_22-172" data-name="Ellipse 22" cx="3" cy="3" r="3" transform="translate(1291 141)" fill="#00e0ff"/>
    </g>
    <g transform="translate(-1207 349)">
      <circle id="Ellipse_22-173" data-name="Ellipse 22" cx="3" cy="3" r="3" transform="translate(1291 141)" fill="#00e0ff"/>
    </g>
    <g transform="translate(-1165 349)">
      <circle id="Ellipse_22-174" data-name="Ellipse 22" cx="3" cy="3" r="3" transform="translate(1291 141)" fill="#00e0ff"/>
    </g>
    <g transform="translate(-1123 349)">
      <circle id="Ellipse_22-175" data-name="Ellipse 22" cx="3" cy="3" r="3" transform="translate(1291 141)" fill="#00e0ff"/>
    </g>
    <g transform="translate(-1081 349)">
      <circle id="Ellipse_22-176" data-name="Ellipse 22" cx="3" cy="3" r="3" transform="translate(1291 141)" fill="#00e0ff"/>
    </g>
    <g transform="translate(-1039 349)">
      <circle id="Ellipse_22-177" data-name="Ellipse 22" cx="3" cy="3" r="3" transform="translate(1291 141)" fill="#00e0ff"/>
    </g>
    <g transform="translate(-997 349)">
      <circle id="Ellipse_22-178" data-name="Ellipse 22" cx="3" cy="3" r="3" transform="translate(1291 141)" fill="#00e0ff"/>
    </g>
    <g transform="translate(-955 349)">
      <circle id="Ellipse_22-179" data-name="Ellipse 22" cx="3" cy="3" r="3" transform="translate(1291 141)" fill="#00e0ff"/>
    </g>
    <g transform="translate(-913 349)">
      <circle id="Ellipse_22-180" data-name="Ellipse 22" cx="3" cy="3" r="3" transform="translate(1291 141)" fill="#00e0ff"/>
    </g>
    <g transform="translate(-871 349)">
      <circle id="Ellipse_22-181" data-name="Ellipse 22" cx="3" cy="3" r="3" transform="translate(1291 141)" fill="#00e0ff"/>
    </g>
    <g transform="translate(-829 349)">
      <circle id="Ellipse_22-182" data-name="Ellipse 22" cx="3" cy="3" r="3" transform="translate(1291 141)" fill="#00e0ff"/>
    </g>
    <g transform="translate(-787 349)">
      <circle id="Ellipse_22-183" data-name="Ellipse 22" cx="3" cy="3" r="3" transform="translate(1291 141)" fill="#00e0ff"/>
    </g>
    <g transform="translate(-745 349)">
      <circle id="Ellipse_22-184" data-name="Ellipse 22" cx="3" cy="3" r="3" transform="translate(1291 141)" fill="#00e0ff"/>
    </g>
    <g transform="translate(-703 349)">
      <circle id="Ellipse_22-185" data-name="Ellipse 22" cx="3" cy="3" r="3" transform="translate(1291 141)" fill="#00e0ff"/>
    </g>
    <g transform="translate(-661 349)">
      <circle id="Ellipse_22-186" data-name="Ellipse 22" cx="3" cy="3" r="3" transform="translate(1291 141)" fill="#00e0ff"/>
    </g>
    <g transform="translate(-619 349)">
      <circle id="Ellipse_22-187" data-name="Ellipse 22" cx="3" cy="3" r="3" transform="translate(1291 141)" fill="#00e0ff"/>
    </g>
    <g transform="translate(-1291 398)">
      <circle id="Ellipse_22-188" data-name="Ellipse 22" cx="3" cy="3" r="3" transform="translate(1291 141)" fill="#00e0ff"/>
    </g>
    <g transform="translate(-1249 398)">
      <circle id="Ellipse_22-189" data-name="Ellipse 22" cx="3" cy="3" r="3" transform="translate(1291 141)" fill="#00e0ff"/>
    </g>
    <g transform="translate(-1207 398)">
      <circle id="Ellipse_22-190" data-name="Ellipse 22" cx="3" cy="3" r="3" transform="translate(1291 141)" fill="#00e0ff"/>
    </g>
    <g transform="translate(-1165 398)">
      <circle id="Ellipse_22-191" data-name="Ellipse 22" cx="3" cy="3" r="3" transform="translate(1291 141)" fill="#00e0ff"/>
    </g>
    <g transform="translate(-1123 398)">
      <circle id="Ellipse_22-192" data-name="Ellipse 22" cx="3" cy="3" r="3" transform="translate(1291 141)" fill="#00e0ff"/>
    </g>
    <g transform="translate(-1081 398)">
      <circle id="Ellipse_22-193" data-name="Ellipse 22" cx="3" cy="3" r="3" transform="translate(1291 141)" fill="#00e0ff"/>
    </g>
    <g transform="translate(-1039 398)">
      <circle id="Ellipse_22-194" data-name="Ellipse 22" cx="3" cy="3" r="3" transform="translate(1291 141)" fill="#00e0ff"/>
    </g>
    <g transform="translate(-997 398)">
      <circle id="Ellipse_22-195" data-name="Ellipse 22" cx="3" cy="3" r="3" transform="translate(1291 141)" fill="#00e0ff"/>
    </g>
    <g transform="translate(-955 398)">
      <circle id="Ellipse_22-196" data-name="Ellipse 22" cx="3" cy="3" r="3" transform="translate(1291 141)" fill="#00e0ff"/>
    </g>
    <g transform="translate(-913 398)">
      <circle id="Ellipse_22-197" data-name="Ellipse 22" cx="3" cy="3" r="3" transform="translate(1291 141)" fill="#00e0ff"/>
    </g>
    <g transform="translate(-871 398)">
      <circle id="Ellipse_22-198" data-name="Ellipse 22" cx="3" cy="3" r="3" transform="translate(1291 141)" fill="#00e0ff"/>
    </g>
    <g transform="translate(-829 398)">
      <circle id="Ellipse_22-199" data-name="Ellipse 22" cx="3" cy="3" r="3" transform="translate(1291 141)" fill="#00e0ff"/>
    </g>
    <g transform="translate(-787 398)">
      <circle id="Ellipse_22-200" data-name="Ellipse 22" cx="3" cy="3" r="3" transform="translate(1291 141)" fill="#00e0ff"/>
    </g>
    <g transform="translate(-745 398)">
      <circle id="Ellipse_22-201" data-name="Ellipse 22" cx="3" cy="3" r="3" transform="translate(1291 141)" fill="#00e0ff"/>
    </g>
    <g transform="translate(-703 398)">
      <circle id="Ellipse_22-202" data-name="Ellipse 22" cx="3" cy="3" r="3" transform="translate(1291 141)" fill="#00e0ff"/>
    </g>
    <g transform="translate(-661 398)">
      <circle id="Ellipse_22-203" data-name="Ellipse 22" cx="3" cy="3" r="3" transform="translate(1291 141)" fill="#00e0ff"/>
    </g>
    <g transform="translate(-619 398)">
      <circle id="Ellipse_22-204" data-name="Ellipse 22" cx="3" cy="3" r="3" transform="translate(1291 141)" fill="#00e0ff"/>
    </g>
    <g transform="translate(-1291 447)">
      <circle id="Ellipse_22-205" data-name="Ellipse 22" cx="3" cy="3" r="3" transform="translate(1291 141)" fill="#00e0ff"/>
    </g>
    <g transform="translate(-1249 447)">
      <circle id="Ellipse_22-206" data-name="Ellipse 22" cx="3" cy="3" r="3" transform="translate(1291 141)" fill="#00e0ff"/>
    </g>
    <g transform="translate(-1207 447)">
      <circle id="Ellipse_22-207" data-name="Ellipse 22" cx="3" cy="3" r="3" transform="translate(1291 141)" fill="#00e0ff"/>
    </g>
    <g transform="translate(-1165 447)">
      <circle id="Ellipse_22-208" data-name="Ellipse 22" cx="3" cy="3" r="3" transform="translate(1291 141)" fill="#00e0ff"/>
    </g>
    <g transform="translate(-1123 447)">
      <circle id="Ellipse_22-209" data-name="Ellipse 22" cx="3" cy="3" r="3" transform="translate(1291 141)" fill="#00e0ff"/>
    </g>
    <g transform="translate(-1081 447)">
      <circle id="Ellipse_22-210" data-name="Ellipse 22" cx="3" cy="3" r="3" transform="translate(1291 141)" fill="#00e0ff"/>
    </g>
    <g transform="translate(-1039 447)">
      <circle id="Ellipse_22-211" data-name="Ellipse 22" cx="3" cy="3" r="3" transform="translate(1291 141)" fill="#00e0ff"/>
    </g>
    <g transform="translate(-997 447)">
      <circle id="Ellipse_22-212" data-name="Ellipse 22" cx="3" cy="3" r="3" transform="translate(1291 141)" fill="#00e0ff"/>
    </g>
    <g transform="translate(-955 447)">
      <circle id="Ellipse_22-213" data-name="Ellipse 22" cx="3" cy="3" r="3" transform="translate(1291 141)" fill="#00e0ff"/>
    </g>
    <g transform="translate(-913 447)">
      <circle id="Ellipse_22-214" data-name="Ellipse 22" cx="3" cy="3" r="3" transform="translate(1291 141)" fill="#00e0ff"/>
    </g>
    <g transform="translate(-871 447)">
      <circle id="Ellipse_22-215" data-name="Ellipse 22" cx="3" cy="3" r="3" transform="translate(1291 141)" fill="#00e0ff"/>
    </g>
    <g transform="translate(-829 447)">
      <circle id="Ellipse_22-216" data-name="Ellipse 22" cx="3" cy="3" r="3" transform="translate(1291 141)" fill="#00e0ff"/>
    </g>
    <g transform="translate(-787 447)">
      <circle id="Ellipse_22-217" data-name="Ellipse 22" cx="3" cy="3" r="3" transform="translate(1291 141)" fill="#00e0ff"/>
    </g>
    <g transform="translate(-745 447)">
      <circle id="Ellipse_22-218" data-name="Ellipse 22" cx="3" cy="3" r="3" transform="translate(1291 141)" fill="#00e0ff"/>
    </g>
    <g transform="translate(-703 447)">
      <circle id="Ellipse_22-219" data-name="Ellipse 22" cx="3" cy="3" r="3" transform="translate(1291 141)" fill="#00e0ff"/>
    </g>
    <g transform="translate(-661 447)">
      <circle id="Ellipse_22-220" data-name="Ellipse 22" cx="3" cy="3" r="3" transform="translate(1291 141)" fill="#00e0ff"/>
    </g>
    <g transform="translate(-619 447)">
      <circle id="Ellipse_22-221" data-name="Ellipse 22" cx="3" cy="3" r="3" transform="translate(1291 141)" fill="#00e0ff"/>
    </g>
    <g transform="translate(-1291 496)">
      <circle id="Ellipse_22-222" data-name="Ellipse 22" cx="3" cy="3" r="3" transform="translate(1291 141)" fill="#00e0ff"/>
    </g>
    <g transform="translate(-1249 496)">
      <circle id="Ellipse_22-223" data-name="Ellipse 22" cx="3" cy="3" r="3" transform="translate(1291 141)" fill="#00e0ff"/>
    </g>
    <g transform="translate(-1207 496)">
      <circle id="Ellipse_22-224" data-name="Ellipse 22" cx="3" cy="3" r="3" transform="translate(1291 141)" fill="#00e0ff"/>
    </g>
    <g transform="translate(-1165 496)">
      <circle id="Ellipse_22-225" data-name="Ellipse 22" cx="3" cy="3" r="3" transform="translate(1291 141)" fill="#00e0ff"/>
    </g>
    <g transform="translate(-1123 496)">
      <circle id="Ellipse_22-226" data-name="Ellipse 22" cx="3" cy="3" r="3" transform="translate(1291 141)" fill="#00e0ff"/>
    </g>
    <g transform="translate(-1081 496)">
      <circle id="Ellipse_22-227" data-name="Ellipse 22" cx="3" cy="3" r="3" transform="translate(1291 141)" fill="#00e0ff"/>
    </g>
    <g transform="translate(-1039 496)">
      <circle id="Ellipse_22-228" data-name="Ellipse 22" cx="3" cy="3" r="3" transform="translate(1291 141)" fill="#00e0ff"/>
    </g>
    <g transform="translate(-997 496)">
      <circle id="Ellipse_22-229" data-name="Ellipse 22" cx="3" cy="3" r="3" transform="translate(1291 141)" fill="#00e0ff"/>
    </g>
    <g transform="translate(-955 496)">
      <circle id="Ellipse_22-230" data-name="Ellipse 22" cx="3" cy="3" r="3" transform="translate(1291 141)" fill="#00e0ff"/>
    </g>
    <g transform="translate(-913 496)">
      <circle id="Ellipse_22-231" data-name="Ellipse 22" cx="3" cy="3" r="3" transform="translate(1291 141)" fill="#00e0ff"/>
    </g>
    <g transform="translate(-871 496)">
      <circle id="Ellipse_22-232" data-name="Ellipse 22" cx="3" cy="3" r="3" transform="translate(1291 141)" fill="#00e0ff"/>
    </g>
    <g transform="translate(-829 496)">
      <circle id="Ellipse_22-233" data-name="Ellipse 22" cx="3" cy="3" r="3" transform="translate(1291 141)" fill="#00e0ff"/>
    </g>
    <g transform="translate(-787 496)">
      <circle id="Ellipse_22-234" data-name="Ellipse 22" cx="3" cy="3" r="3" transform="translate(1291 141)" fill="#00e0ff"/>
    </g>
    <g transform="translate(-745 496)">
      <circle id="Ellipse_22-235" data-name="Ellipse 22" cx="3" cy="3" r="3" transform="translate(1291 141)" fill="#00e0ff"/>
    </g>
    <g transform="translate(-703 496)">
      <circle id="Ellipse_22-236" data-name="Ellipse 22" cx="3" cy="3" r="3" transform="translate(1291 141)" fill="#00e0ff"/>
    </g>
    <g transform="translate(-661 496)">
      <circle id="Ellipse_22-237" data-name="Ellipse 22" cx="3" cy="3" r="3" transform="translate(1291 141)" fill="#00e0ff"/>
    </g>
    <g transform="translate(-619 496)">
      <circle id="Ellipse_22-238" data-name="Ellipse 22" cx="3" cy="3" r="3" transform="translate(1291 141)" fill="#00e0ff"/>
    </g>
  </g>
</svg>
