<svg xmlns="http://www.w3.org/2000/svg" width="27.428" height="27.428" viewBox="0 0 27.428 27.428">
  <path id="Icon_awesome-link" data-name="Icon awesome-link" d="M17.5,9.931a8.138,8.138,0,0,1,.019,11.5l-.019.02-3.6,3.6A8.143,8.143,0,0,1,2.381,13.531l1.988-1.988a.856.856,0,0,1,1.462.568,9.871,9.871,0,0,0,.519,2.824.862.862,0,0,1-.2.89l-.7.7a3.857,3.857,0,1,0,5.42,5.489l3.6-3.6a3.856,3.856,0,0,0,0-5.455,4.013,4.013,0,0,0-.554-.459.859.859,0,0,1-.372-.675,2.134,2.134,0,0,1,.627-1.6L15.295,9.1a.861.861,0,0,1,1.1-.093,8.168,8.168,0,0,1,1.1.921Zm7.55-7.55a8.152,8.152,0,0,0-11.516,0l-3.6,3.6L9.912,6a8.144,8.144,0,0,0,1.119,12.417.861.861,0,0,0,1.1-.093L13.261,17.2a2.134,2.134,0,0,0,.627-1.6.859.859,0,0,0-.372-.675,4.013,4.013,0,0,1-.554-.459,3.856,3.856,0,0,1,0-5.455l3.6-3.6a3.857,3.857,0,1,1,5.42,5.489l-.7.7a.862.862,0,0,0-.2.89,9.871,9.871,0,0,1,.519,2.824.856.856,0,0,0,1.462.568L25.047,13.9a8.151,8.151,0,0,0,0-11.515Z" transform="translate(0)" fill="#06d6c1"/>
</svg>
