<svg xmlns="http://www.w3.org/2000/svg" width="22.735" height="18.433" viewBox="0 0 22.735 18.433">
  <path id="Icon_material-format-list-bulleted" data-name="Icon material-format-list-bulleted" d="M5.593,14.123a1.843,1.843,0,1,0,1.843,1.843A1.841,1.841,0,0,0,5.593,14.123Zm0-7.373A1.843,1.843,0,1,0,7.437,8.593,1.841,1.841,0,0,0,5.593,6.75Zm0,14.747A1.843,1.843,0,1,0,7.437,23.34,1.849,1.849,0,0,0,5.593,21.5ZM9.28,24.569h17.2V22.111H9.28Zm0-7.373h17.2V14.738H9.28Zm0-9.831V9.822h17.2V7.364Z" transform="translate(-3.75 -6.75)" fill="#eee"/>
</svg>
