<svg xmlns="http://www.w3.org/2000/svg" width="152.029" height="197.333" viewBox="0 0 152.029 197.333">
  <g id="Group_123" data-name="Group 123" transform="translate(1545.029 730.333) rotate(180)">
    <g id="Polygon_3" data-name="Polygon 3" transform="translate(1545.029 730.333) rotate(180)" fill="none">
      <path d="M76.014,0l76.014,131.969H0Z" stroke="none"/>
      <path d="M 76.01442718505859 6.010543823242188 L 5.1900634765625 128.969482421875 L 146.8387908935547 128.969482421875 L 76.01442718505859 6.010543823242188 M 76.01442718505859 0 L 152.0288543701172 131.969482421875 L 0 131.969482421875 L 76.01442718505859 0 Z" stroke="none" fill="#515151"/>
    </g>
    <g id="Polygon_4" data-name="Polygon 4" transform="translate(1537.639 683.716) rotate(180)" fill="none" opacity="0.09">
      <path d="M68.624,0l68.624,119.3H0Z" stroke="none"/>
      <path d="M 68.62413024902344 4.011093139648438 L 3.45770263671875 117.300407409668 L 133.79052734375 117.300407409668 L 68.62413024902344 4.011093139648438 M 68.62413024902344 -1.52587890625e-05 L 137.2482452392578 119.300407409668 L -1.52587890625e-05 119.300407409668 L 68.62413024902344 -1.52587890625e-05 Z" stroke="none" fill="#fff"/>
    </g>
    <g id="Polygon_5" data-name="Polygon 5" transform="translate(1523.914 629.074) rotate(180)" fill="none" opacity="0.03">
      <path d="M54.9,0l54.9,96.074H0Z" stroke="none"/>
      <path d="M 54.89930725097656 4.031135559082031 L 3.446365356445312 94.07378387451172 L 106.3522491455078 94.07378387451172 L 54.89930725097656 4.031135559082031 M 54.89930725097656 -7.62939453125e-06 L 109.7986145019531 96.07378387451172 L 0 96.07378387451172 L 54.89930725097656 -7.62939453125e-06 Z" stroke="none" fill="#fff"/>
    </g>
  </g>
</svg>
