<svg xmlns="http://www.w3.org/2000/svg" width="36.968" height="27.726" viewBox="0 0 36.968 27.726">
  <path id="Icon_open-eye" data-name="Icon open-eye" d="M18.623,0C6.931,0,0,13.863,0,13.863S6.931,27.726,18.623,27.726c11.414,0,18.345-13.863,18.345-13.863S30.036,0,18.623,0Zm-.139,4.621a9.242,9.242,0,1,1-9.242,9.242A9.239,9.239,0,0,1,18.484,4.621Zm0,4.621A4.621,4.621,0,1,0,23.1,13.863a5.851,5.851,0,0,0-.277-1.294,2.285,2.285,0,1,1-3.05-3.05A4.046,4.046,0,0,0,18.484,9.242Z" fill="#141717"/>
</svg>
