<svg xmlns="http://www.w3.org/2000/svg" width="42.744" height="42.744" viewBox="0 0 42.744 42.744"><defs><style>.a{fill:#06d6c1;}</style></defs><path class="a" d="M39.691,2.25H3.044A3.066,3.066,0,0,0,0,5.332v36.58a3.066,3.066,0,0,0,3.044,3.082H39.691a3.074,3.074,0,0,0,3.053-3.082V5.332A3.074,3.074,0,0,0,39.691,2.25ZM12.919,38.887H6.583v-20.4h6.345v20.4ZM9.751,15.7a3.673,3.673,0,1,1,3.673-3.673A3.675,3.675,0,0,1,9.751,15.7ZM36.666,38.887H30.331V28.965c0-2.366-.048-5.41-3.292-5.41-3.3,0-3.807,2.576-3.807,5.238V38.887H16.9v-20.4h6.078v2.786h.086a6.673,6.673,0,0,1,6-3.292c6.412,0,7.6,4.227,7.6,9.722Z" transform="translate(0 -2.25)"/></svg>