<svg xmlns="http://www.w3.org/2000/svg" width="2305.006" height="837.445" viewBox="0 0 2305.006 837.445">
  <g id="orbits" transform="translate(-30.196 -240.331)">
    <g id="Path_20" data-name="Path 20" transform="translate(312.001 362.812) rotate(9)" fill="none" opacity="0.07">
      <path d="M894.679-7.229C1388.8-11.222,1788.572,77.932,1787.6,191.9S1385.287,401.5,891.169,405.489-2.724,320.328-1.755,206.359,400.561-3.237,894.679-7.229Z" stroke="none"/>
      <path d="M 926.5663452148438 -5.358123779296875 C 916.0274658203125 -5.358123779296875 905.3045043945312 -5.314727783203125 894.6950073242188 -5.229034423828125 C 834.0233764648438 -4.738800048828125 773.37841796875 -2.83905029296875 714.444580078125 0.417327880859375 C 657.0111083984375 3.590728759765625 600.5068359375 8.09027099609375 546.5015869140625 13.79049682617188 C 493.4818115234375 19.38662719726562 442.3341064453125 26.19595336914062 394.4788818359375 34.02935791015625 C 347.088134765625 41.78665161132812 302.5140380859375 50.61505126953125 261.9949951171875 60.26937866210938 C 221.4949951171875 69.91912841796875 184.716552734375 80.47232055664062 152.6815185546875 91.6357421875 C 120.380615234375 102.8918762207031 92.6304931640625 114.8636779785156 70.2015380859375 127.2184448242188 C 58.8985595703125 133.44482421875 48.799560546875 139.8557434082031 40.1849365234375 146.2730102539062 C 31.5079345703125 152.7370910644531 24.134765625 159.3582305908203 18.270263671875 165.9527740478516 C 12.3736572265625 172.5832366943359 7.864990234375 179.3414154052734 4.8697509765625 186.0393676757812 C 1.858642578125 192.7720947265625 0.302978515625 199.6143646240234 0.2454833984375 206.3761901855469 C 0.213134765625 210.1534576416016 0.648193359375 213.9714202880859 1.5382080078125 217.724365234375 C 2.423583984375 221.4589080810547 3.7843017578125 225.2330017089844 5.582275390625 228.9414215087891 C 9.167236328125 236.3359527587891 14.625244140625 243.7568664550781 21.8048095703125 250.9973297119141 C 27.1727294921875 256.4114074707031 33.61474609375 261.8359375 40.9515380859375 267.1200561523438 C 48.2449951171875 272.3730163574219 56.60205078125 277.6164245605469 65.7908935546875 282.704833984375 C 84.039306640625 292.8105163574219 106.1297607421875 302.6282348632812 131.4490966796875 311.885498046875 C 156.5599365234375 321.066650390625 185.2041015625 329.8273315429688 216.5859375 337.9243774414062 C 247.891845703125 346.0018615722656 282.361572265625 353.5323181152344 319.0377197265625 360.3064270019531 C 355.864990234375 367.1084594726562 395.439697265625 373.244384765625 436.6624755859375 378.5439147949219 C 478.3243408203125 383.8998107910156 522.2867431640625 388.4802856445312 567.328857421875 392.1582336425781 C 660.453369140625 399.7625427246094 758.6806640625 403.6182250976562 859.2820434570312 403.6182250976562 C 869.8208618164062 403.6182250976562 880.5438232421875 403.5748291015625 891.1533813476562 403.4891357421875 C 951.824951171875 402.9989013671875 1012.469970703125 401.0991516113281 1071.40380859375 397.8427734375 C 1128.837280273438 394.6693725585938 1185.34130859375 390.1698303222656 1239.346801757812 384.4696044921875 C 1292.366333007812 378.8734741210938 1343.514282226562 372.0641479492188 1391.369506835938 364.2307434082031 C 1438.760009765625 356.4734497070312 1483.334106445312 347.6450500488281 1523.853149414062 337.99072265625 C 1564.353149414062 328.3409423828125 1601.131591796875 317.7877807617188 1633.16650390625 306.6243591308594 C 1665.467529296875 295.3682250976562 1693.217895507812 283.3964233398438 1715.646606445312 271.0416259765625 C 1726.94970703125 264.8152770996094 1737.048828125 258.4043579101562 1745.663330078125 251.9870910644531 C 1754.340454101562 245.5230102539062 1761.713623046875 238.9018707275391 1767.578125 232.3073272705078 C 1773.474731445312 225.6768646240234 1777.9833984375 218.9186859130859 1780.978637695312 212.2207336425781 C 1783.98974609375 205.4880065917969 1785.54541015625 198.6457366943359 1785.602905273438 191.8839111328125 C 1785.63525390625 188.1066436767578 1785.2001953125 184.2886810302734 1784.310180664062 180.5357360839844 C 1783.4248046875 176.8011932373047 1782.064086914062 173.027099609375 1780.26611328125 169.3186798095703 C 1776.680908203125 161.9239196777344 1771.222900390625 154.5032348632812 1764.043579101562 147.2625579833984 C 1758.675415039062 141.8486938476562 1752.2333984375 136.4241333007812 1744.896362304688 131.1400451660156 C 1737.603149414062 125.8870849609375 1729.245849609375 120.6436767578125 1720.057250976562 115.5550537109375 C 1701.808837890625 105.4495849609375 1679.718139648438 95.63186645507812 1654.398803710938 86.37460327148438 C 1629.287963867188 77.19345092773438 1600.643798828125 68.43276977539062 1569.261962890625 60.33572387695312 C 1537.9560546875 52.25823974609375 1503.486328125 44.727783203125 1466.810180664062 37.95367431640625 C 1429.98291015625 31.15164184570312 1390.408447265625 25.0157470703125 1349.185424804688 19.7161865234375 C 1307.523803710938 14.36029052734375 1263.561279296875 9.779815673828125 1218.519287109375 6.10186767578125 C 1125.394775390625 -1.50244140625 1027.167724609375 -5.358123779296875 926.5663452148438 -5.358123779296875 M 926.5663452148438 -7.358062744140625 C 1405.920776367188 -7.358062744140625 1788.550903320312 80.38739013671875 1787.602905273438 191.9009552001953 C 1786.6337890625 305.8700561523438 1385.286865234375 401.4966430664062 891.1695556640625 405.4891357421875 C 880.5235595703125 405.5751647949219 869.8373413085938 405.6181640625 859.2820434570312 405.6181640625 C 379.9273681640625 405.6181640625 -2.7030029296875 317.8727111816406 -1.7545166015625 206.3591461181641 C -0.78564453125 92.39004516601562 400.5614013671875 -3.236541748046875 894.6788330078125 -7.229034423828125 C 905.3248291015625 -7.3150634765625 916.0110473632812 -7.358062744140625 926.5663452148438 -7.358062744140625 Z" stroke="none" fill="#fff"/>
    </g>
    <g id="Path_21" data-name="Path 21" transform="matrix(0.998, 0.07, -0.07, 0.998, 78.543, 243.807)" fill="none" opacity="0.02">
      <path d="M1131.5-3.392c624.909-1.873,1131.02,149.1,1130.431,337.214s-507.655,342.124-1132.564,344S-1.656,528.717-1.066,340.606,506.589-1.519,1131.5-3.392Z" stroke="none"/>
      <path d="M 1142.998901367188 2.59075927734375 L 1131.515747070312 2.60809326171875 C 510.8939208984375 4.4683837890625 5.51123046875 156.1019287109375 4.93359375 340.6245727539062 C 4.834228515625 372.366943359375 20.1572265625 403.8833923339844 50.47705078125 434.2984008789062 C 189.89892578125 574.1575317382812 628.824462890625 671.8372192382812 1117.863647460938 671.8372192382812 L 1129.346801757812 671.8198852539062 C 1749.968627929688 669.9595947265625 2255.351318359375 518.3260498046875 2255.92919921875 333.8034057617188 C 2256.028564453125 302.06103515625 2240.705322265625 270.5445861816406 2210.3857421875 240.1295776367188 C 2070.96337890625 100.2701416015625 1632.0380859375 2.59075927734375 1142.998901367188 2.59075927734375 M 1142.998779296875 -3.40911865234375 C 1762.637817382812 -3.40911865234375 2262.514404296875 146.85888671875 2261.92919921875 333.8222351074219 C 2261.340087890625 521.9337158203125 1754.273681640625 675.9466552734375 1129.36474609375 677.8198852539062 C 1125.550659179688 677.831298828125 1121.6689453125 677.8370971679688 1117.86376953125 677.8370971679688 C 498.2247314453125 677.8370971679688 -1.65185546875 527.569091796875 -1.06640625 340.6057434082031 C -0.4775390625 152.4942626953125 506.5888671875 -1.5186767578125 1131.497802734375 -3.39190673828125 C 1135.311889648438 -3.4033203125 1139.193603515625 -3.40911865234375 1142.998779296875 -3.40911865234375 Z" stroke="none" fill="#fff"/>
    </g>
    <g id="Ellipse_21" data-name="Ellipse 21" transform="translate(620.593 470.075) rotate(5)" fill="none" stroke="#fff" stroke-width="2" opacity="0.02">
      <ellipse cx="522.26" cy="156.093" rx="522.26" ry="156.093" stroke="none"/>
      <ellipse cx="522.26" cy="156.093" rx="521.26" ry="155.093" fill="none"/>
    </g>
  </g>
</svg>
